<?xml version="1.0" encoding="UTF-8"?>
<svg xmlns="http://www.w3.org/2000/svg" xmlns:xlink="http://www.w3.org/1999/xlink" width="2112" height="2112" viewBox="0 0 2112 2112">
<rect x="-211.2" y="-211.2" width="2534.4" height="2534.4" fill="rgb(99.609375%, 99.609375%, 99.609375%)" fill-opacity="1"/>
<path fill-rule="evenodd" fill="rgb(0%, 0%, 0%)" fill-opacity="1" d="M 1396.390625 1026.269531 C 1412.75 1214.371094 1273.660156 1380.035156 1085.699219 1396.402344 C 897.683594 1412.828125 731.96875 1273.628906 715.652344 1085.679688 C 699.222656 897.671875 838.328125 731.980469 1026.320312 715.671875 C 1214.390625 699.25 1380.089844 838.371094 1396.390625 1026.269531 Z M 567.480469 1056.019531 C 567.480469 1325.359375 786.628906 1544.535156 1056.011719 1544.535156 C 1325.398438 1544.527344 1544.519531 1325.359375 1544.519531 1056.019531 C 1544.519531 786.640625 1325.390625 567.460938 1056.011719 567.460938 C 786.628906 567.460938 567.480469 786.640625 567.480469 1056.019531 "/>
<path fill-rule="evenodd" fill="rgb(0%, 0%, 0%)" fill-opacity="1" d="M 1056.019531 1612.695312 C 749.046875 1612.695312 499.3125 1362.941406 499.3125 1056.019531 C 499.316406 749.011719 749.046875 499.328125 1056.011719 499.328125 C 1362.96875 499.328125 1612.699219 749.011719 1612.699219 1056.019531 C 1612.710938 1362.941406 1362.96875 1612.695312 1056.019531 1612.695312 Z M 1725.910156 1326.070312 L 1806.660156 1322.945312 C 1825.460938 1322.144531 1844.898438 1306.722656 1849.851562 1288.542969 L 1876.378906 1160.679688 C 1879.101562 1142.042969 1867.5 1120.113281 1850.578125 1111.898438 L 1777.820312 1076.640625 C 1760.910156 1068.449219 1746.851562 1046.328125 1746.570312 1027.539062 C 1746.570312 1027.53125 1746.449219 1018.078125 1744.539062 996.03125 C 1743.921875 988.410156 1743.921875 988.421875 1743.921875 988.421875 C 1742.871094 980.171875 1755.011719 965.148438 1770.941406 955.089844 L 1839.449219 911.851562 C 1855.371094 901.789062 1864.460938 878.671875 1859.671875 860.460938 L 1819.179688 736.429688 C 1812.25 718.960938 1791.210938 705.75 1772.441406 707.109375 L 1691.441406 712.96875 C 1672.648438 714.308594 1650.398438 704.070312 1641.910156 690.148438 C 1633.449219 676.171875 1615.96875 627.648438 1624.738281 610.980469 L 1662.390625 539.460938 C 1671.160156 522.769531 1667.46875 498.269531 1654.21875 484.949219 L 1556.921875 397.910156 C 1542.171875 386.191406 1517.378906 385.25 1501.78125 395.789062 L 1434.761719 441.269531 C 1419.171875 451.800781 1394.75 454.058594 1380.53125 446.261719 C 1366.308594 438.449219 1326.78125 404.949219 1326.039062 386.179688 L 1322.871094 305.398438 C 1322.128906 286.578125 1306.660156 267.171875 1288.53125 262.199219 L 1160.691406 235.601562 C 1142.078125 232.789062 1120.148438 244.441406 1111.929688 261.359375 L 1076.679688 334.160156 C 1068.460938 351.101562 1046.371094 365.191406 1027.570312 365.441406 C 1027.570312 365.429688 1018.128906 365.601562 996.085938 367.460938 C 988.421875 368.199219 988.421875 368.199219 988.421875 368.199219 C 980.15625 369.21875 965.179688 357.039062 955.167969 341.121094 L 911.910156 272.511719 C 901.871094 256.609375 878.742188 247.53125 860.566406 252.308594 L 736.457031 292.839844 C 718.949219 299.78125 705.757812 320.800781 707.113281 339.558594 L 712.992188 420.578125 C 714.324219 439.328125 704.054688 461.628906 690.109375 470.101562 C 676.214844 478.570312 627.71875 496.078125 611.0625 487.308594 L 539.421875 449.621094 C 522.789062 440.871094 498.210938 444.558594 484.886719 457.789062 L 397.875 555.128906 C 386.183594 569.878906 385.285156 594.710938 395.851562 610.269531 L 441.351562 677.328125 C 451.886719 692.878906 454.117188 717.261719 446.316406 731.480469 C 438.46875 745.738281 404.964844 785.191406 386.160156 785.988281 L 305.34375 789.101562 C 286.5625 789.878906 267.117188 805.300781 262.171875 823.460938 L 235.617188 951.359375 C 232.902344 969.980469 244.519531 991.910156 261.453125 1000.121094 L 334.273438 1035.359375 C 351.183594 1043.570312 365.238281 1065.660156 365.472656 1084.488281 C 365.472656 1084.480469 365.609375 1093.949219 367.523438 1115.945312 C 368.257812 1123.609375 368.257812 1123.609375 368.257812 1123.609375 C 369.25 1131.894531 357.097656 1146.878906 341.175781 1156.929688 L 272.597656 1200.171875 C 256.699219 1210.203125 247.597656 1233.308594 252.367188 1251.515625 L 292.871094 1375.53125 C 299.816406 1392.992188 320.855469 1406.226562 339.628906 1404.84375 L 420.542969 1398.980469 C 439.296875 1397.589844 461.59375 1407.886719 470.0625 1421.804688 C 478.535156 1435.699219 496.023438 1484.265625 487.273438 1500.945312 L 449.636719 1572.484375 C 440.863281 1589.152344 444.542969 1613.707031 457.796875 1627.03125 L 555.144531 1714.148438 C 569.917969 1725.796875 594.699219 1726.699219 610.304688 1716.160156 L 677.316406 1670.710938 C 692.945312 1660.125 717.289062 1657.894531 731.511719 1665.761719 C 745.714844 1673.582031 785.199219 1707.074219 785.953125 1725.847656 L 789.136719 1806.671875 C 789.875 1825.441406 805.335938 1844.914062 823.488281 1849.886719 L 951.304688 1876.414062 C 969.921875 1879.15625 991.847656 1867.558594 1000.089844 1850.648438 L 1035.421875 1777.804688 C 1043.609375 1760.914062 1065.738281 1746.8125 1084.570312 1746.539062 C 1084.570312 1746.53125 1093.960938 1746.394531 1116.019531 1744.582031 C 1123.621094 1743.910156 1123.621094 1743.914062 1123.621094 1743.914062 C 1131.878906 1742.808594 1146.871094 1754.960938 1156.890625 1770.882812 L 1200.171875 1839.507812 C 1210.171875 1855.449219 1233.269531 1864.589844 1251.5 1859.78125 L 1375.589844 1819.226562 C 1393.050781 1812.304688 1406.238281 1791.273438 1404.898438 1772.519531 L 1399.058594 1691.488281 C 1397.71875 1672.726562 1407.980469 1650.4375 1421.910156 1641.964844 C 1435.808594 1633.476562 1484.359375 1616.035156 1501 1624.757812 L 1572.621094 1662.402344 C 1589.261719 1671.144531 1613.808594 1667.464844 1627.160156 1654.210938 L 1714.191406 1556.886719 C 1725.878906 1542.113281 1726.800781 1517.332031 1716.261719 1501.726562 L 1670.789062 1434.714844 C 1660.21875 1419.132812 1657.96875 1394.765625 1665.769531 1380.527344 C 1673.570312 1366.300781 1707.101562 1326.789062 1725.910156 1326.070312 "/>
</svg>
